<svg width="53" height="53" viewBox="0 0 53 53" fill="none" xmlns="http://www.w3.org/2000/svg">
<path d="M46.886 33.5408C47.2262 32.5991 48.1924 32.0452 49.1776 32.2235L51.344 32.6168L52.0597 28.563L49.892 28.1915C48.9054 28.0228 48.1842 27.1654 48.1897 26.1639C48.1897 26.1299 48.1897 26.0959 48.1897 26.0618C48.1897 26.0278 48.1897 25.9938 48.1897 25.9612C48.1842 24.9582 48.9041 24.1023 49.8934 23.9336L52.0584 23.5634L51.3426 19.5096L49.1776 19.9029C48.1937 20.0812 47.2262 19.5246 46.886 18.5857C46.8642 18.5217 46.8397 18.4578 46.8166 18.3938C46.4669 17.4521 46.8506 16.4016 47.7215 15.9036L49.6307 14.8136L47.5732 11.2483L45.6749 12.3573C44.8122 12.8608 43.7113 12.669 43.0704 11.9028C43.0282 11.8498 42.9846 11.798 42.9397 11.7463C42.2879 10.9816 42.2893 9.86165 42.9384 9.09552L44.3604 7.41903L41.2074 4.77229L39.799 6.46511C39.1595 7.23532 38.0545 7.43127 37.1917 6.9237C37.1319 6.88968 37.0734 6.85566 37.0135 6.82164C36.1453 6.32359 35.7684 5.27442 36.1154 4.33548L36.8774 2.27388L33.0087 0.865463L32.2534 2.97197C31.9187 3.90683 30.9593 4.46883 29.9796 4.3001C29.9129 4.28785 29.8462 4.27696 29.7782 4.26608C28.7875 4.0987 28.069 3.2414 28.0745 2.23714L28.084 0H23.9676L23.9798 2.2385C23.9853 3.24004 23.2641 4.10142 22.2761 4.26744C22.2095 4.27968 22.1428 4.29057 22.0761 4.30146C21.095 4.47156 20.137 3.91227 19.7995 2.97333L19.0443 0.869545L15.1769 2.27796L15.9389 4.34228C16.2859 5.2785 15.9063 6.33039 15.0408 6.82708C14.9823 6.8611 14.9224 6.89512 14.8625 6.9305C13.9957 7.43808 12.8948 7.24349 12.2512 6.47056L10.8469 4.77909L7.69391 7.42447L9.11593 9.10232C9.76367 9.86709 9.76639 10.987 9.11729 11.7504C9.07102 11.8035 9.02748 11.8552 8.98394 11.9083C8.343 12.6771 7.24484 12.8676 6.37938 12.3628L4.48244 11.2551L2.42493 14.819L4.33684 15.9104C5.20638 16.407 5.59149 17.4603 5.24176 18.3992C5.21863 18.4632 5.19413 18.5272 5.171 18.5911C4.83216 19.5328 3.86464 20.088 2.87943 19.9097L0.714415 19.5165L0 23.5702L2.16774 23.9431C3.15431 24.1118 3.87553 24.9691 3.87009 25.9693C3.87009 26.0006 3.87009 26.0319 3.87009 26.0618C3.87009 26.0986 3.87009 26.1353 3.87009 26.1721C3.87689 27.175 3.15567 28.0309 2.16774 28.201L0.00136004 28.5711L0.715775 32.6249L2.88079 32.2317C3.86464 32.0534 4.83353 32.61 5.17236 33.5489C5.1955 33.6129 5.21999 33.6782 5.24312 33.7422C5.59284 34.6825 5.2091 35.7343 4.3382 36.2324L2.42765 37.3224L4.48516 40.8863L6.38619 39.7773C7.24757 39.2738 8.34981 39.4656 8.98938 40.2318C9.03293 40.2848 9.07783 40.3365 9.12137 40.3869C9.76911 41.1503 9.77319 42.2716 9.1241 43.0363L7.70071 44.7156L10.8537 47.3609L12.2621 45.6681C12.9016 44.8965 14.0066 44.702 14.8694 45.2082C14.9279 45.2422 14.9877 45.2776 15.0476 45.3116C15.9158 45.8096 16.2955 46.8588 15.9485 47.7977L15.1851 49.8593L19.0538 51.2678L19.8104 49.1613C20.1451 48.225 21.1045 47.6644 22.0843 47.8331C22.1496 47.844 22.2176 47.8563 22.2843 47.8671C23.275 48.0345 23.9934 48.8932 23.988 49.8974L23.9758 52.1332L28.0921 52.1319L28.0826 49.892C28.0799 48.8905 28.7984 48.0304 29.7863 47.8631C29.853 47.8535 29.9183 47.8413 29.9864 47.829C30.9675 47.659 31.9255 48.2196 32.263 49.1572L33.0155 51.2623L36.8842 49.8539L36.1208 47.7855C35.7752 46.8493 36.1548 45.7974 37.0189 45.3007C37.0774 45.2667 37.136 45.2327 37.1945 45.1973C38.0613 44.6897 39.1622 44.8843 39.8058 45.6572L41.2115 47.3528L44.3645 44.706L42.9397 43.0227C42.2934 42.2593 42.292 41.138 42.9397 40.3746C42.9833 40.3229 43.0282 40.2712 43.0717 40.2195C43.7127 39.4507 44.8108 39.2602 45.6763 39.765L47.5773 40.8754L49.6375 37.3101L47.7229 36.2174C46.8534 35.7207 46.4683 34.6675 46.818 33.7285C46.8411 33.6687 46.8629 33.6047 46.886 33.5408ZM26.0306 43.6201C16.3363 43.6201 8.47772 35.7616 8.47772 26.0673C8.47772 16.373 16.3363 8.51446 26.0306 8.51446C35.7248 8.51446 43.5834 16.373 43.5834 26.0673C43.5834 35.7616 35.7235 43.6201 26.0306 43.6201Z" fill="#1180C5"/>
<path d="M26.0306 42.933C16.7309 42.933 9.16493 35.367 9.16493 26.0688C9.16493 16.7691 16.7309 9.20312 26.0306 9.20312C35.3302 9.20312 42.8948 16.7691 42.8948 26.0688C42.8948 35.367 35.3288 42.933 26.0306 42.933ZM26.0306 10.304C17.3392 10.304 10.2672 17.376 10.2672 26.0674C10.2672 34.7588 17.3392 41.8308 26.0306 41.8308C34.7219 41.8308 41.7926 34.7588 41.7926 26.0674C41.7926 17.376 34.7219 10.304 26.0306 10.304Z" fill="#1180C5"/>
<path d="M26.734 19.6227L26.6279 19.6839L22.2774 22.1959V17.1474L18.0903 14.7075V34.5941L26.734 39.5841L35.3791 34.5941V24.6127L26.734 19.6227ZM31.1933 32.1773L26.7354 34.7492L22.2788 32.1773V27.0308L26.7354 24.4562L31.1933 27.0308V32.1773Z" fill="#1180C5"/>
</svg>
