<svg width="20" height="20" viewBox="0 0 20 20" fill="none" xmlns="http://www.w3.org/2000/svg">
<path fill-rule="evenodd" clip-rule="evenodd" d="M9.5025 4.16663H4.16667C3.72464 4.16663 3.30072 4.34222 2.98816 4.65478C2.67559 4.96734 2.5 5.39127 2.5 5.83329V15.8333C2.5 16.2753 2.67559 16.6992 2.98816 17.0118C3.30072 17.3244 3.72464 17.5 4.16667 17.5H14.1667C14.6087 17.5 15.0326 17.3244 15.3452 17.0118C15.6577 16.6992 15.8333 16.2753 15.8333 15.8333V10.4975C15.5128 10.3837 15.2187 10.206 14.969 9.97505C14.7193 9.74412 14.5192 9.46482 14.3808 9.15413L11.86 11.675C11.6294 11.9137 11.3535 12.1042 11.0485 12.2352C10.7435 12.3662 10.4155 12.4352 10.0835 12.4381C9.75155 12.441 9.42236 12.3777 9.11511 12.252C8.80787 12.1263 8.52874 11.9407 8.29401 11.7059C8.05928 11.4712 7.87365 11.1921 7.74795 10.8848C7.62224 10.5776 7.55899 10.2484 7.56187 9.91646C7.56476 9.58451 7.63372 9.25646 7.76475 8.95145C7.89577 8.64644 8.08622 8.37058 8.325 8.13996L10.8458 5.61913C10.5351 5.48074 10.2558 5.28061 10.0249 5.03092C9.79398 4.78122 9.61624 4.48716 9.5025 4.16663Z" fill="white"/>
<path fill-rule="evenodd" clip-rule="evenodd" d="M11.0268 3.33333C11.0268 3.11232 11.1146 2.90036 11.2709 2.74408C11.4271 2.5878 11.6391 2.5 11.8601 2.5H16.6668C16.8878 2.5 17.0998 2.5878 17.256 2.74408C17.4123 2.90036 17.5001 3.11232 17.5001 3.33333V8.14C17.5001 8.36101 17.4123 8.57298 17.256 8.72926C17.0998 8.88554 16.8878 8.97333 16.6668 8.97333C16.4458 8.97333 16.2338 8.88554 16.0775 8.72926C15.9213 8.57298 15.8335 8.36101 15.8335 8.14V5.345L10.6818 10.4967C10.5246 10.6485 10.3141 10.7325 10.0956 10.7306C9.87713 10.7287 9.66812 10.641 9.51361 10.4865C9.3591 10.332 9.27146 10.123 9.26956 9.9045C9.26766 9.686 9.35166 9.4755 9.50346 9.31833L14.6551 4.16667H11.8601C11.6391 4.16667 11.4271 4.07887 11.2709 3.92259C11.1146 3.76631 11.0268 3.55435 11.0268 3.33333Z" fill="white"/>
</svg>
