<svg width="126" height="36" viewBox="0 0 126 36" fill="none" xmlns="http://www.w3.org/2000/svg">
<path d="M32.2822 23.0936C32.5164 22.4453 33.1816 22.0639 33.86 22.1867L35.3516 22.4575L35.8444 19.6663L34.3519 19.4105C33.6726 19.2944 33.176 18.7041 33.1798 18.0145C33.1798 17.9911 33.1798 17.9676 33.1798 17.9442C33.1798 17.9208 33.1798 17.8974 33.1798 17.8749C33.176 17.1844 33.6717 16.595 34.3528 16.4789L35.8435 16.224L35.3506 13.4329L33.86 13.7036C33.1826 13.8264 32.5164 13.4432 32.2822 12.7967C32.2672 12.7527 32.2503 12.7086 32.2344 12.6646C31.9936 12.0162 32.2578 11.2929 32.8575 10.95L34.172 10.1995L32.7553 7.74472L31.4483 8.50833C30.8543 8.85499 30.0963 8.72289 29.655 8.19539C29.626 8.15885 29.596 8.12325 29.5651 8.08764C29.1163 7.56108 29.1172 6.78999 29.5641 6.26249L30.5432 5.10818L28.3723 3.28584L27.4026 4.45139C26.9622 4.9817 26.2015 5.11661 25.6074 4.76714C25.5662 4.74371 25.5259 4.72029 25.4847 4.69687C24.8869 4.35395 24.6274 3.63157 24.8663 2.98508L25.391 1.56562L22.7273 0.595892L22.2073 2.04627C21.9768 2.68995 21.3163 3.0769 20.6417 2.96072C20.5958 2.95229 20.5498 2.94479 20.503 2.9373C19.8209 2.82206 19.3262 2.23179 19.33 1.54033L19.3365 0H16.5023L16.5107 1.54126C16.5145 2.23085 16.0179 2.82393 15.3377 2.93824C15.2918 2.94667 15.2458 2.95416 15.1999 2.96166C14.5244 3.07878 13.8648 2.6937 13.6324 2.04721L13.1124 0.598703L10.4497 1.56843L10.9743 2.98977C11.2133 3.63438 10.9519 4.35863 10.356 4.70061C10.3157 4.72404 10.2745 4.74746 10.2332 4.77182C9.6364 5.1213 8.87842 4.98732 8.43525 4.45514L7.46833 3.29052L5.29744 5.11193L6.27654 6.26717C6.72253 6.79373 6.7244 7.56483 6.27748 8.09045C6.24562 8.12699 6.21564 8.1626 6.18566 8.19914C5.74436 8.72851 4.98825 8.85968 4.39236 8.51208L3.08627 7.74941L1.66962 10.2032L2.98602 10.9547C3.58472 11.2967 3.84988 12.0218 3.60908 12.6683C3.59316 12.7124 3.57629 12.7564 3.56036 12.8004C3.32706 13.4488 2.6609 13.8311 1.98256 13.7083L0.491892 13.4376L0 16.2287L1.49254 16.4854C2.17182 16.6016 2.6684 17.1919 2.66465 17.8805C2.66465 17.9021 2.66465 17.9236 2.66465 17.9442C2.66465 17.9695 2.66465 17.9948 2.66465 18.0201C2.66933 18.7106 2.17276 19.3 1.49254 19.4171L0.000936423 19.6719L0.492829 22.4631L1.9835 22.1923C2.6609 22.0696 3.328 22.4528 3.5613 23.0993C3.57723 23.1433 3.59409 23.1883 3.61002 23.2323C3.85081 23.8797 3.5866 24.604 2.98696 24.9469L1.6715 25.6974L3.08815 28.1512L4.39705 27.3876C4.99013 27.0409 5.74905 27.1731 6.18941 27.7006C6.21939 27.7371 6.25031 27.7727 6.28029 27.8074C6.72627 28.333 6.72908 29.105 6.28217 29.6316L5.30213 30.7878L7.47301 32.6092L8.44274 31.4436C8.8831 30.9124 9.6439 30.7784 10.2379 31.1269C10.2782 31.1504 10.3194 31.1747 10.3607 31.1981C10.9584 31.5411 11.2198 32.2634 10.9809 32.9099L10.4553 34.3294L13.119 35.2991L13.6399 33.8487C13.8704 33.2041 14.531 32.8181 15.2056 32.9343C15.2505 32.9418 15.2974 32.9502 15.3433 32.9577C16.0254 33.073 16.5201 33.6642 16.5163 34.3556L16.5079 35.895L19.3421 35.8941L19.3356 34.3519C19.3337 33.6623 19.8284 33.0701 20.5086 32.9549C20.5545 32.9483 20.5995 32.9399 20.6464 32.9315C21.3219 32.8144 21.9815 33.2004 22.2139 33.8459L22.732 35.2954L25.3957 34.3256L24.8701 32.9015C24.6321 32.2569 24.8935 31.5326 25.4884 31.1906C25.5287 31.1672 25.569 31.1438 25.6093 31.1194C26.2061 30.77 26.9641 30.9039 27.4073 31.4361L28.3751 32.6035L30.546 30.7812L29.5651 29.6222C29.12 29.0966 29.1191 28.3246 29.5651 27.7989C29.595 27.7633 29.626 27.7277 29.6559 27.6921C30.0972 27.1628 30.8533 27.0316 31.4492 27.3792L32.7581 28.1437L34.1767 25.6889L32.8584 24.9366C32.2597 24.5946 31.9945 23.8694 32.2353 23.2229C32.2513 23.1817 32.2663 23.1377 32.2822 23.0936ZM17.9227 30.0335C11.2479 30.0335 5.83712 24.6227 5.83712 17.948C5.83712 11.2732 11.2479 5.86242 17.9227 5.86242C24.5974 5.86242 30.0082 11.2732 30.0082 17.948C30.0082 24.6227 24.5965 30.0335 17.9227 30.0335Z" fill="white"/>
<path d="M17.9227 29.5605C11.5197 29.5605 6.3103 24.3511 6.3103 17.949C6.3103 11.546 11.5197 6.33661 17.9227 6.33661C24.3257 6.33661 29.5342 11.546 29.5342 17.949C29.5342 24.3511 24.3248 29.5605 17.9227 29.5605ZM17.9227 7.09459C11.9385 7.09459 7.06922 11.9639 7.06922 17.9481C7.06922 23.9323 11.9385 28.8016 17.9227 28.8016C23.9069 28.8016 28.7753 23.9323 28.7753 17.9481C28.7753 11.9639 23.9069 7.09459 17.9227 7.09459Z" fill="white"/>
<path d="M18.407 13.5105L18.3339 13.5527L15.3385 15.2822V11.8062L12.4556 10.1263V23.8187L18.407 27.2544L24.3594 23.8187V16.9462L18.407 13.5105ZM21.4773 22.1547L18.4079 23.9255L15.3395 22.1547V18.6112L18.4079 16.8385L21.4773 18.6112V22.1547Z" fill="white"/>
<path d="M43.0838 8.58841H48.5983C49.9407 8.58841 50.9264 8.89343 51.5882 9.51899C52.2499 10.1273 52.5722 10.8976 52.5722 11.811C52.5722 12.9742 51.9983 13.8169 50.8713 14.3183C52.5015 14.7664 53.3063 15.7694 53.3063 17.3634C53.3063 19.5296 51.8381 20.8548 49.1876 20.8548H43.082V8.58841H43.0838ZM46.6113 11.4181V13.2982H48.133C48.7603 13.2982 49.1187 12.8863 49.1187 12.3848C49.1187 11.8299 48.7965 11.4181 48.1519 11.4181H46.6113ZM46.6113 16.0382V18.0251H48.6879C49.3858 18.0251 49.7805 17.6133 49.7805 17.0394C49.7805 16.4483 49.3686 16.0365 48.6345 16.0365H46.6113V16.0382Z" fill="white"/>
<path d="M54.3127 8.58841H63.6788V11.5973H57.8403V13.2086H63.1412V16.1812H57.8403V17.8459H63.7133V20.8548H54.3127V8.58841Z" fill="white"/>
<path d="M64.4128 16.9515H67.9042C67.9766 17.8649 68.566 18.3301 69.6585 18.3301C70.6081 18.3301 71.0734 18.0613 71.0734 17.5064C71.0734 17.0049 70.4995 16.7533 69.2639 16.4673C67.8853 16.1261 66.9185 15.8055 66.3636 15.5005C65.1642 14.8198 64.5542 13.7634 64.5542 12.3486C64.5542 11.1492 64.9833 10.1824 65.8432 9.44831C66.7203 8.71419 67.8663 8.35575 69.3173 8.35575C72.3262 8.35575 74.1339 9.93083 74.3321 12.6002H70.8941C70.8407 11.7937 70.4995 11.1854 69.2639 11.1854C68.4574 11.1854 68.0283 11.5438 68.0283 11.9919C68.0283 12.3503 68.2075 12.6192 68.69 12.8328C69.1743 13.0293 69.4604 13.1017 70.2307 13.262C70.6787 13.3516 71.001 13.4412 71.2336 13.5135C71.4663 13.567 71.7885 13.6738 72.2004 13.8186C72.595 13.9444 72.9173 14.0874 73.1672 14.2839C73.9013 14.8215 74.7078 15.7159 74.6182 17.1307C74.6182 18.294 74.1701 19.2607 73.293 19.9948C72.4158 20.729 71.1802 21.0874 69.5689 21.0874C66.3636 21.0874 64.6093 19.6192 64.4128 16.9515Z" fill="white"/>
<path d="M78.1115 20.8548V11.7041H74.7097V8.58841H85.0426V11.7041H81.6408V20.8548H78.1115Z" fill="white"/>
<path d="M89.2506 13.9427V20.8548H85.9385V8.58841H90.4862L93.1539 14.9094L95.8043 8.58841H100.352V20.8548H97.0037V13.9427L94.0483 20.8548H92.2044L89.2506 13.9427Z" fill="white"/>
<path d="M109.487 19.0643H105.189L104.635 20.8548H101.071L105.189 8.58841H109.703L113.804 20.8548H110.044L109.487 19.0643ZM107.338 12.0436L106.049 16.2157H108.61L107.338 12.0436Z" fill="white"/>
<path d="M117.94 14.4269V20.8548H114.519V8.58841H118.512L122.381 15.1421V8.58841H125.802V20.8548H121.809L117.94 14.4269Z" fill="white"/>
<path d="M43.0819 24.4065H43.6558V27.4981H43.0819V24.4065Z" fill="white"/>
<path d="M49.4461 24.4065V27.4981H48.974L47.2696 25.4043V27.4981H46.6992V24.4065H47.1714L48.8757 26.5003V24.4065H49.4461Z" fill="white"/>
<path d="M53.1132 24.8925H52.0879V24.4065H54.7125V24.8925H53.6871V27.4981H53.1132V24.8925Z" fill="white"/>
<path d="M59.6721 27.0173V27.4981H57.3525V24.4065H59.61V24.8873H57.9264V25.6921H59.4188V26.1643H57.9264V27.0173H59.6721Z" fill="white"/>
<path d="M64.5455 27.4981L63.913 26.5917C63.8872 26.5951 63.8475 26.5968 63.7941 26.5968H63.0962V27.4981H62.5223V24.4065H63.7941C64.0612 24.4065 64.2956 24.4513 64.4938 24.5392C64.692 24.6271 64.8453 24.7546 64.9505 24.9183C65.0573 25.0838 65.109 25.2785 65.109 25.506C65.109 25.7386 65.0521 25.9385 64.9384 26.1074C64.8247 26.2746 64.6627 26.4004 64.4507 26.4831L65.1624 27.4998H64.5455V27.4981ZM64.337 25.051C64.2077 24.9442 64.0182 24.8925 63.7666 24.8925H63.0945V26.1246H63.7666C64.0164 26.1246 64.206 26.0712 64.337 25.9644C64.4662 25.8575 64.5317 25.7042 64.5317 25.5077C64.5317 25.3095 64.4662 25.1579 64.337 25.051Z" fill="white"/>
<path d="M70.7062 24.4065V27.4981H70.234L68.5296 25.4043V27.4981H67.9592V24.4065H68.4314L70.1357 26.5003V24.4065H70.7062Z" fill="white"/>
<path d="M75.7521 26.7829H74.2063L73.9013 27.4981H73.3085L74.6992 24.4065H75.2644L76.6603 27.4981H76.0606L75.7521 26.7829ZM75.5625 26.3314L74.9801 24.9804L74.401 26.3314H75.5625Z" fill="white"/>
<path d="M79.7363 24.8925H78.7109V24.4065H81.3355V24.8925H80.3101V27.4981H79.7363V24.8925Z" fill="white"/>
<path d="M83.9774 24.4065H84.5513V27.4981H83.9774V24.4065Z" fill="white"/>
<path d="M88.1857 27.3378C87.9324 27.2017 87.7342 27.0104 87.5894 26.7674C87.4447 26.5244 87.3723 26.2521 87.3723 25.9523C87.3723 25.6524 87.4447 25.3801 87.5894 25.1372C87.7342 24.8942 87.9324 24.7046 88.1857 24.5667C88.439 24.4306 88.7234 24.3617 89.0387 24.3617C89.3541 24.3617 89.6384 24.4306 89.8918 24.5667C90.1451 24.7046 90.3433 24.8924 90.488 25.1337C90.6328 25.375 90.7052 25.6472 90.7052 25.9505C90.7052 26.2538 90.6328 26.5261 90.488 26.7674C90.3433 27.0086 90.1451 27.1982 89.8918 27.3344C89.6384 27.4722 89.3541 27.5394 89.0387 27.5394C88.7234 27.5394 88.439 27.4739 88.1857 27.3378ZM89.5954 26.9001C89.7608 26.807 89.89 26.6778 89.9848 26.5106C90.0796 26.3435 90.1261 26.1573 90.1261 25.9523C90.1261 25.7455 90.0796 25.5594 89.9848 25.3939C89.89 25.2285 89.7608 25.0975 89.5954 25.0045C89.4299 24.9114 89.2455 24.8649 89.0387 24.8649C88.8319 24.8649 88.6475 24.9114 88.4821 25.0045C88.3167 25.0975 88.1874 25.2268 88.0926 25.3939C87.9979 25.5611 87.9513 25.7472 87.9513 25.9523C87.9513 26.1591 87.9979 26.3452 88.0926 26.5106C88.1874 26.676 88.3167 26.807 88.4821 26.9001C88.6475 26.9931 88.8319 27.0397 89.0387 27.0397C89.2455 27.0397 89.4299 26.9931 89.5954 26.9001Z" fill="white"/>
<path d="M96.2698 24.4065V27.4981H95.7976L94.0932 25.4043V27.4981H93.5228V24.4065H93.995L95.6993 26.5003V24.4065H96.2698Z" fill="white"/>
<path d="M101.315 26.7829H99.7697L99.4646 27.4981H98.8718L100.263 24.4065H100.828L102.224 27.4981H101.622L101.315 26.7829ZM101.124 26.3314L100.542 24.9804L99.9627 26.3314H101.124Z" fill="white"/>
<path d="M104.826 24.4065H105.4V27.0121H107.016V27.4981H104.826V24.4065Z" fill="white"/>
<path d="M113.108 24.4065H113.682V27.0121H115.298V27.4981H113.108V24.4065Z" fill="white"/>
<path d="M118.304 24.8925H117.278V24.4065H119.903V24.8925H118.877V27.4981H118.304V24.8925Z" fill="white"/>
<path d="M122.545 24.4065H123.896C124.225 24.4065 124.518 24.4703 124.774 24.5978C125.031 24.7253 125.229 24.9063 125.371 25.1406C125.512 25.375 125.583 25.6456 125.583 25.9506C125.583 26.2573 125.512 26.5262 125.371 26.7605C125.229 26.9949 125.031 27.1759 124.774 27.3034C124.518 27.4309 124.225 27.4947 123.896 27.4947H122.545V24.4065ZM123.87 27.0121C124.097 27.0121 124.295 26.9691 124.468 26.8812C124.64 26.7933 124.773 26.6709 124.866 26.5107C124.959 26.3504 125.005 26.1643 125.005 25.9523C125.005 25.7403 124.959 25.5542 124.866 25.394C124.773 25.2337 124.64 25.1096 124.468 25.0235C124.295 24.9373 124.096 24.8925 123.87 24.8925H123.118V27.0121H123.87Z" fill="white"/>
</svg>
