<svg width="20" height="20" viewBox="0 0 20 20" fill="none" xmlns="http://www.w3.org/2000/svg">
<g clip-path="url(#clip0_9619_5257)">
<g clip-path="url(#clip1_9619_5257)">
<path fill-rule="evenodd" clip-rule="evenodd" d="M6.66634 2.49996C6.66634 2.27895 6.75414 2.06698 6.91042 1.9107C7.0667 1.75442 7.27866 1.66663 7.49967 1.66663H12.4997C12.7207 1.66663 12.9326 1.75442 13.0889 1.9107C13.2452 2.06698 13.333 2.27895 13.333 2.49996H14.9997C15.4417 2.49996 15.8656 2.67555 16.1782 2.98811C16.4907 3.30068 16.6663 3.7246 16.6663 4.16663V16.6666C16.6663 17.1087 16.4907 17.5326 16.1782 17.8451C15.8656 18.1577 15.4417 18.3333 14.9997 18.3333H4.99967C4.55765 18.3333 4.13372 18.1577 3.82116 17.8451C3.5086 17.5326 3.33301 17.1087 3.33301 16.6666V4.16663C3.33301 3.7246 3.5086 3.30068 3.82116 2.98811C4.13372 2.67555 4.55765 2.49996 4.99967 2.49996H6.66634ZM11.6663 3.33329H8.33301V4.99996H7.49967C7.27866 4.99996 7.0667 5.08776 6.91042 5.24404C6.75414 5.40032 6.66634 5.61228 6.66634 5.83329C6.66634 6.05431 6.75414 6.26627 6.91042 6.42255C7.0667 6.57883 7.27866 6.66663 7.49967 6.66663H12.4997C12.7207 6.66663 12.9326 6.57883 13.0889 6.42255C13.2452 6.26627 13.333 6.05431 13.333 5.83329C13.333 5.61228 13.2452 5.40032 13.0889 5.24404C12.9326 5.08776 12.7207 4.99996 12.4997 4.99996H11.6663V3.33329ZM9.16634 9.99996C9.16634 9.77894 9.25414 9.56698 9.41042 9.4107C9.5667 9.25442 9.77866 9.16663 9.99967 9.16663H12.4997C12.7207 9.16663 12.9326 9.25442 13.0889 9.4107C13.2452 9.56698 13.333 9.77894 13.333 9.99996C13.333 10.221 13.2452 10.4329 13.0889 10.5892C12.9326 10.7455 12.7207 10.8333 12.4997 10.8333H9.99967C9.77866 10.8333 9.5667 10.7455 9.41042 10.5892C9.25414 10.4329 9.16634 10.221 9.16634 9.99996ZM7.49967 9.16663C7.27866 9.16663 7.0667 9.25442 6.91042 9.4107C6.75414 9.56698 6.66634 9.77894 6.66634 9.99996C6.66634 10.221 6.75414 10.4329 6.91042 10.5892C7.0667 10.7455 7.27866 10.8333 7.49967 10.8333H7.50801C7.72902 10.8333 7.94098 10.7455 8.09726 10.5892C8.25354 10.4329 8.34134 10.221 8.34134 9.99996C8.34134 9.77894 8.25354 9.56698 8.09726 9.4107C7.94098 9.25442 7.72902 9.16663 7.50801 9.16663H7.49967ZM9.16634 13.3333C9.16634 13.1123 9.25414 12.9003 9.41042 12.744C9.5667 12.5878 9.77866 12.5 9.99967 12.5H12.4997C12.7207 12.5 12.9326 12.5878 13.0889 12.744C13.2452 12.9003 13.333 13.1123 13.333 13.3333C13.333 13.5543 13.2452 13.7663 13.0889 13.9225C12.9326 14.0788 12.7207 14.1666 12.4997 14.1666H9.99967C9.77866 14.1666 9.5667 14.0788 9.41042 13.9225C9.25414 13.7663 9.16634 13.5543 9.16634 13.3333ZM7.49967 12.5C7.27866 12.5 7.0667 12.5878 6.91042 12.744C6.75414 12.9003 6.66634 13.1123 6.66634 13.3333C6.66634 13.5543 6.75414 13.7663 6.91042 13.9225C7.0667 14.0788 7.27866 14.1666 7.49967 14.1666H7.50801C7.72902 14.1666 7.94098 14.0788 8.09726 13.9225C8.25354 13.7663 8.34134 13.5543 8.34134 13.3333C8.34134 13.1123 8.25354 12.9003 8.09726 12.744C7.94098 12.5878 7.72902 12.5 7.50801 12.5H7.49967Z" fill="white"/>
</g>
</g>
<defs>
<clipPath id="clip0_9619_5257">
<rect width="20" height="20" fill="white"/>
</clipPath>
<clipPath id="clip1_9619_5257">
<rect width="20" height="20" fill="white"/>
</clipPath>
</defs>
</svg>
