<svg width="24" height="24" viewBox="0 0 24 24" fill="none" xmlns="http://www.w3.org/2000/svg">
<path opacity="0.4" d="M3.49981 22.7999H20.4998C20.8998 22.7999 21.2998 22.5 21.2998 22C21.2998 21.5 20.9998 21.2 20.4998 21.2H3.49981C3.09981 21.2 2.69981 21.5 2.69981 22C2.69981 22.5 3.09981 22.7999 3.49981 22.7999Z" fill="white"/>
<path d="M4.99961 18.1999C5.19961 18.1999 5.39961 18.0999 5.49961 17.9999L19.4996 3.9999C19.7996 3.6999 19.7996 3.2999 19.4996 2.9999C19.1996 2.6999 18.6996 2.6999 18.3996 2.9999L4.39961 16.9999C4.09961 17.2999 4.09961 17.7999 4.39961 18.0999C4.59961 18.1999 4.79961 18.1999 4.99961 18.1999Z" fill="white"/>
<path d="M18.9998 14.5C19.3998 14.5 19.7998 14.2 19.7998 13.7V3.49995C19.7998 3.09995 19.4998 2.69995 18.9998 2.69995H8.6998C8.2998 2.69995 7.8998 2.99995 7.8998 3.49995C7.8998 3.99995 8.1998 4.29995 8.6998 4.29995H18.1998V13.8C18.1998 14.2 18.5998 14.5 18.9998 14.5Z" fill="white"/>
</svg>
